# xmcd
#
# Track frame offsets: 
#        150
#        9820
#        24868
#        52855
#        69723
#        93025
#        104850
#        125028
#        136543
#        153300
#
# Disc length: 2418 seconds
#
# Revision: 10
# Processed by: cddbd v1.5.2PL0 Copyright (c) Steve Scherf et al.
# Submitted via: ExactAudioCopy v1.0b3
#
DISCID=7109700a
DTITLE=The Who - Quadrophenia
DYEAR=1973
DGENRE=Rock
TTITLE0=I Am the Sea
TTITLE1=The Real Me
TTITLE2=Quadrophenia
TTITLE3=Cut My Hair
TTITLE4=The Punk and the Godfather
TTITLE5=I'm One
TTITLE6=The Dirty Jobs
TTITLE7=Helpless Dancer
TTITLE8=Is It in My Head?
TTITLE9=I've Had Enough
EXTD=YEAR: 1973
EXTT0=
EXTT1=
EXTT2=
EXTT3=
EXTT4=
EXTT5=
EXTT6=
EXTT7=
EXTT8=
EXTT9=
PLAYORDER=
